<svg id="Layer_1" data-name="Layer 1" xmlns="http://www.w3.org/2000/svg" viewBox="0 0 5110.85 1280"><defs><style>.cls-1{fill:#231f20;}</style></defs><polygon class="cls-1" points="2139.24 372.44 2139.24 259.55 1931.24 259.55 1808.19 259.55 1600.22 259.55 1600.22 372.44 1808.19 372.44 1808.19 981.64 1931.24 981.64 1931.24 372.44 2139.24 372.44"/><path class="cls-1" d="M2276.35,432.44q-117,0-181.29,73.23T2030.74,711.1q0,135.78,75.77,208.25t214.6,72.46q32,0,73.48-2.55t91.78-11.69l-13.21-115.94q-35.62,6.6-69.94,10.42a633.34,633.34,0,0,1-69.92,3.81q-87,0-134.25-43.47Q2170,805.66,2158.85,764h350.91q3.06-32.54,3-69.67,0-127.64-61.78-194.77T2276.35,432.44Zm-122.72,241c3.84-35.61,14.11-64.38,31.19-85.94q33-41.7,92.55-41.69,54.4,0,84.93,33t30.51,94.59Z"/><path class="cls-1" d="M2821.7,549.41A154.13,154.13,0,0,1,2898,569q35.05,19.59,57.46,55.7l93-72.73q-24.39-56.94-82.62-88.22t-140.1-31.28q-134.25,0-206.46,73.23T2547.1,711.1q0,135.78,78.05,208.25t221.46,72.46q41.68,0,85.94-3A576.8,576.8,0,0,0,3018,976.55l-13.23-114.92q-35.05,6.09-71.95,9.65t-74,3.56q-88.47,0-136-43.21T2675.26,706q0-75.25,38.63-115.95T2821.7,549.41Z"/><path class="cls-1" d="M3366,432.44q-63.06,0-94.84,26.7t-37.89,81.11h-12.2V218.87h-125.6V981.64h125.6V693.82q0-147,112.9-147,40.68,0,63.05,25.67T3419.41,646V981.64H3545V630.75q0-94.57-46.78-146.44T3366,432.44Z"/><path class="cls-1" d="M4037.71,505.16q-55.17-72.71-158.39-72.72-62.06,0-96.62,27.47t-43.22,80.34h-8.58l-8.71-97.64H3606.76v772.94h125.59V884H3743q7.1,52.89,42.71,80.34t94.06,27.47q102.74,0,157.9-71.19t55.19-206Q4092.9,577.88,4037.71,505.16Zm-101.94,331q-30,41.2-88.49,41.19-60.53,0-87.72-38.64t-27.21-119V705q0-80.35,29-119.25t85.94-38.9q57.48,0,88,43.22t30.5,124.58Q3965.76,795,3935.77,836.2Z"/><path class="cls-1" d="M4498.38,442.61,4375,878.91h-10.88l-150.53-436.3h-132.2l194.24,539h64.69a309.82,309.82,0,0,1-17.9,34.58q-25.44,41.17-61,62T4176,1105.2l-89.48,10.17,5.08,110.35,96.6-10.17q74.26-7.63,127.65-37.13t92.3-88.47q38.9-59,69.41-156.11L4630.6,442.61Z"/><path class="cls-1" d="M5110.85,694.33q0-127.64-61.78-194.77t-174.68-67.12q-117,0-181.29,73.23T4628.77,711.1q0,135.78,75.78,208.25t214.6,72.46q32,0,73.47-2.55t91.78-11.69l-13.2-115.94q-35.62,6.6-69.94,10.42a633.48,633.48,0,0,1-69.92,3.81q-87,0-134.25-43.47Q4768,805.66,4756.89,764H5107.8Q5110.84,731.46,5110.85,694.33Zm-359.18-20.85c3.84-35.61,14.11-64.38,31.19-85.94q33-41.7,92.54-41.69,54.42,0,84.93,33t30.52,94.59Z"/><path class="cls-1" d="M807.72,18.94l-423,680.82c-57.61-31-202.7-119-299.12-299.93-89-167.11-88.32-323-84.23-389Z"/><path class="cls-1" d="M1261.06,807.72l-680.82-423c31-57.61,119-202.7,299.93-299.12,167.11-89,323-88.32,389-84.23Z"/><path class="cls-1" d="M472.29,1261.06l423-680.82c57.61,31,202.7,119,299.11,299.93,89,167.11,88.33,323,84.24,389Z"/><path class="cls-1" d="M18.94,472.28l680.82,423c-31,57.61-119,202.7-299.93,299.12-167.11,89-323,88.32-389,84.23Z"/></svg>